PathFileType	4	(X/Y/Z)	C:/Users/dbak576/Desktop/Duncan Bakke Modelling Files/H22s1/Static_H22s1.trc	
DataRate	CameraRate	NumFrames	NumMarkers	Units	OrigDataRate	OrigDataStartFrame	OrigNumFrames	
200.00	200.00	2	240	mm	200.00	274	37	
Frame#	Time	LFEO			LFEA			LFEL			LFEP			LTIO			LTIA			LTIL			LTIP			PELO			PELA			PELL			PELP			RFEO			RFEA			RFEL			RFEP			RTIO			RTIA			RTIL			RTIP			LFHD			RFHD			LBHD			RBHD			C7			T10			CLAV			STRN			RBack			LASI			RASI			LPSI			RPSI			RACR1			RUA1			RElbow			RElbowM			RFA1			RWRR			RWRU			RCAR			LACR1			LUA1			LElbow			LElbowM			LFA1			LWRR			LWRU			LCAR			RTH1			RTH3			RTH2			RTH4			RLFC			RMFC			RTB1			RTB3			RTB2			RTB4			RLMAL			RMMAL			RCAL			RMT1			RMT5			RToe			LTH1			LTH3			LTH2			LTH4			LLFC			LMFC			LTB1			LTB3			LTB2			LTB4			LLMAL			LMMAL			LCAL			LMT1			LMT5			LToe			CX			LAJC			LFEM1			LFEM10			LFEM11			LFEM12			LFEM13			LFEM14			LFEM15			LFEM16			LFEM2			LFEM3			LFEM4			LFEM5			LFEM6			LFEM7			LFEM8			LFEM9			LFOO1			LFOO2			LFOO3			LFOO4			LFOO5			LFOO6			LHJC			LIC			LIP			LIS			LIT			LKJC			LSI			LTIB1			LTIB10			LTIB11			LTIB12			LTIB13			LTIB14			LTIB15			LTIB16			LTIB2			LTIB3			LTIB4			LTIB5			LTIB6			LTIB7			LTIB8			LTIB9			LeftThighOrigin			LeftTibOrigin			LowerBodyModelVer			LowerTorsoOrigin			MidHJC			MidPelvis			OAnatomy			OCalRig			OHead			OLeftFemur			OLeftFoot			OLeftTibia			OPelvis			ORightFemur			ORightFoot			ORightTibia			OThorax			Oglobal			PELOrigin			RAJC			RFEM1			RFEM10			RFEM11			RFEM12			RFEM13			RFEM14			RFEM15			RFEM16			RFEM2			RFEM3			RFEM4			RFEM5			RFEM6			RFEM7			RFEM8			RFEM9			RFOO1			RFOO2			RFOO3			RFOO4			RFOO5			RFOO6			RHJC			RIC			RIP			RIS			RIT			RKJC			RSI			RTIB1			RTIB10			RTIB11			RTIB12			RTIB13			RTIB14			RTIB15			RTIB16			RTIB2			RTIB3			RTIB4			RTIB5			RTIB6			RTIB7			RTIB8			RTIB9			RightThighOrigin			RightTibOrigin			SACR			SP			ThoraxOrigin			XAnatomy			XCalRig			XHead			XLeftFemur			XLeftFoot			XLeftTibia			XPelvis			XRightFemur			XRightFoot			XRightTibia			XThorax			Xglobal			YAnatomy			YCalRig			YHead			YLeftFemur			YLeftFoot			YLeftTibia			YPelvis			YRightFemur			YRightFoot			YRightTibia			YThorax			Yglobal			ZAnatomy			ZCalRig			ZHead			ZLeftFemur			ZLeftFoot			ZLeftTibia			ZPelvis			ZRightFemur			ZRightFoot			ZRightTibia			ZThorax			Zglobal			avPEL			avTHOR			newLfootmid			newLfootside			newRfootmid			newRfootside			
		X1	Y1	Z1	X2	Y2	Z2	X3	Y3	Z3	X4	Y4	Z4	X5	Y5	Z5	X6	Y6	Z6	X7	Y7	Z7	X8	Y8	Z8	X9	Y9	Z9	X10	Y10	Z10	X11	Y11	Z11	X12	Y12	Z12	X13	Y13	Z13	X14	Y14	Z14	X15	Y15	Z15	X16	Y16	Z16	X17	Y17	Z17	X18	Y18	Z18	X19	Y19	Z19	X20	Y20	Z20	X21	Y21	Z21	X22	Y22	Z22	X23	Y23	Z23	X24	Y24	Z24	X25	Y25	Z25	X26	Y26	Z26	X27	Y27	Z27	X28	Y28	Z28	X29	Y29	Z29	X30	Y30	Z30	X31	Y31	Z31	X32	Y32	Z32	X33	Y33	Z33	X34	Y34	Z34	X35	Y35	Z35	X36	Y36	Z36	X37	Y37	Z37	X38	Y38	Z38	X39	Y39	Z39	X40	Y40	Z40	X41	Y41	Z41	X42	Y42	Z42	X43	Y43	Z43	X44	Y44	Z44	X45	Y45	Z45	X46	Y46	Z46	X47	Y47	Z47	X48	Y48	Z48	X49	Y49	Z49	X50	Y50	Z50	X51	Y51	Z51	X52	Y52	Z52	X53	Y53	Z53	X54	Y54	Z54	X55	Y55	Z55	X56	Y56	Z56	X57	Y57	Z57	X58	Y58	Z58	X59	Y59	Z59	X60	Y60	Z60	X61	Y61	Z61	X62	Y62	Z62	X63	Y63	Z63	X64	Y64	Z64	X65	Y65	Z65	X66	Y66	Z66	X67	Y67	Z67	X68	Y68	Z68	X69	Y69	Z69	X70	Y70	Z70	X71	Y71	Z71	X72	Y72	Z72	X73	Y73	Z73	X74	Y74	Z74	X75	Y75	Z75	X76	Y76	Z76	X77	Y77	Z77	X78	Y78	Z78	X79	Y79	Z79	X80	Y80	Z80	X81	Y81	Z81	X82	Y82	Z82	X83	Y83	Z83	X84	Y84	Z84	X85	Y85	Z85	X86	Y86	Z86	X87	Y87	Z87	X88	Y88	Z88	X89	Y89	Z89	X90	Y90	Z90	X91	Y91	Z91	X92	Y92	Z92	X93	Y93	Z93	X94	Y94	Z94	X95	Y95	Z95	X96	Y96	Z96	X97	Y97	Z97	X98	Y98	Z98	X99	Y99	Z99	X100	Y100	Z100	X101	Y101	Z101	X102	Y102	Z102	X103	Y103	Z103	X104	Y104	Z104	X105	Y105	Z105	X106	Y106	Z106	X107	Y107	Z107	X108	Y108	Z108	X109	Y109	Z109	X110	Y110	Z110	X111	Y111	Z111	X112	Y112	Z112	X113	Y113	Z113	X114	Y114	Z114	X115	Y115	Z115	X116	Y116	Z116	X117	Y117	Z117	X118	Y118	Z118	X119	Y119	Z119	X120	Y120	Z120	X121	Y121	Z121	X122	Y122	Z122	X123	Y123	Z123	X124	Y124	Z124	X125	Y125	Z125	X126	Y126	Z126	X127	Y127	Z127	X128	Y128	Z128	X129	Y129	Z129	X130	Y130	Z130	X131	Y131	Z131	X132	Y132	Z132	X133	Y133	Z133	X134	Y134	Z134	X135	Y135	Z135	X136	Y136	Z136	X137	Y137	Z137	X138	Y138	Z138	X139	Y139	Z139	X140	Y140	Z140	X141	Y141	Z141	X142	Y142	Z142	X143	Y143	Z143	X144	Y144	Z144	X145	Y145	Z145	X146	Y146	Z146	X147	Y147	Z147	X148	Y148	Z148	X149	Y149	Z149	X150	Y150	Z150	X151	Y151	Z151	X152	Y152	Z152	X153	Y153	Z153	X154	Y154	Z154	X155	Y155	Z155	X156	Y156	Z156	X157	Y157	Z157	X158	Y158	Z158	X159	Y159	Z159	X160	Y160	Z160	X161	Y161	Z161	X162	Y162	Z162	X163	Y163	Z163	X164	Y164	Z164	X165	Y165	Z165	X166	Y166	Z166	X167	Y167	Z167	X168	Y168	Z168	X169	Y169	Z169	X170	Y170	Z170	X171	Y171	Z171	X172	Y172	Z172	X173	Y173	Z173	X174	Y174	Z174	X175	Y175	Z175	X176	Y176	Z176	X177	Y177	Z177	X178	Y178	Z178	X179	Y179	Z179	X180	Y180	Z180	X181	Y181	Z181	X182	Y182	Z182	X183	Y183	Z183	X184	Y184	Z184	X185	Y185	Z185	X186	Y186	Z186	X187	Y187	Z187	X188	Y188	Z188	X189	Y189	Z189	X190	Y190	Z190	X191	Y191	Z191	X192	Y192	Z192	X193	Y193	Z193	X194	Y194	Z194	X195	Y195	Z195	X196	Y196	Z196	X197	Y197	Z197	X198	Y198	Z198	X199	Y199	Z199	X200	Y200	Z200	X201	Y201	Z201	X202	Y202	Z202	X203	Y203	Z203	X204	Y204	Z204	X205	Y205	Z205	X206	Y206	Z206	X207	Y207	Z207	X208	Y208	Z208	X209	Y209	Z209	X210	Y210	Z210	X211	Y211	Z211	X212	Y212	Z212	X213	Y213	Z213	X214	Y214	Z214	X215	Y215	Z215	X216	Y216	Z216	X217	Y217	Z217	X218	Y218	Z218	X219	Y219	Z219	X220	Y220	Z220	X221	Y221	Z221	X222	Y222	Z222	X223	Y223	Z223	X224	Y224	Z224	X225	Y225	Z225	X226	Y226	Z226	X227	Y227	Z227	X228	Y228	Z228	X229	Y229	Z229	X230	Y230	Z230	X231	Y231	Z231	X232	Y232	Z232	X233	Y233	Z233	X234	Y234	Z234	X235	Y235	Z235	X236	Y236	Z236	X237	Y237	Z237	X238	Y238	Z238	X239	Y239	Z239	X240	Y240	Z240	

19	0.090	-97.10313	-462.56259	458.14572	220.78362	-462.68863	449.09796	-97.24716	-144.68869	448.65756	-88.05563	-453.07419	775.89087	-156.30952	-481.26297	71.64326	192.97801	-481.87646	25.71706	-164.79382	-123.98303	2.34392	-109.61272	-411.44907	425.85901	-6.49841	-370.85541	882.41541	231.83211	-370.89438	881.94281	-6.46678	-172.24667	881.99445	-6.10449	-370.43451	1081.02380	122.36339	-459.97989	457.66623	456.42108	-459.99585	457.36191	122.37902	-125.92224	457.32751	122.66773	-459.64117	791.72375	172.71909	-462.53531	68.85303	533.48547	-462.49170	121.62520	165.76874	-101.06656	116.06892	120.40659	-510.26001	426.51639	-50.91688	-419.03381	1531.53552	26.76129	-419.28137	1535.60779	-82.12296	-582.82733	1481.94324	40.69283	-590.74744	1479.71387	-14.33826	-574.54425	1345.72620	-7.26343	-564.81818	1081.41980	-12.33326	-433.19186	1298.25464	-12.92099	-360.05780	1196.24707	132.49059	-561.01752	1257.93994	-160.85452	-381.60965	870.83008	147.85771	-360.10120	894.00061	-37.07822	-579.10779	898.56445	57.59130	-582.58911	901.41010	121.69319	-483.97897	1326.03467	257.48306	-431.10934	1310.79236	381.97928	-372.50287	1277.35730	356.67142	-288.88666	1231.27844	484.26239	-306.96564	1265.72266	568.25854	-243.67870	1348.92725	577.33795	-228.83730	1277.88489	624.33234	-235.39540	1315.00061	-165.08870	-481.72708	1312.84680	-292.83350	-397.39764	1275.50232	-365.74426	-309.25919	1242.97546	-335.34601	-254.22206	1214.13501	-463.40140	-238.88948	1252.23694	-549.38947	-138.29262	1323.77209	-557.87640	-150.41348	1251.81409	-605.35223	-129.24086	1290.09473	230.90649	-440.19452	744.56244	203.04211	-459.08060	561.86304	188.76323	-380.14606	657.08868	215.97264	-450.23715	656.10980	199.98349	-451.34802	465.45813	44.74327	-468.61166	449.87424	138.97499	-427.34732	332.72827	166.07033	-430.27975	149.08516	219.16158	-463.79272	251.33154	154.80396	-435.01297	240.76425	216.34041	-466.96021	70.22375	136.82314	-458.89960	68.56710	191.72710	-521.84290	40.38791	164.59581	-365.16260	46.01944	220.17534	-387.84717	37.12886	175.99469	-306.96088	27.53699	-200.54637	-413.26608	759.15210	-174.63412	-425.78952	570.86163	-145.18799	-355.81161	669.87054	-187.81009	-415.95776	665.30945	-177.22966	-466.27484	466.29318	-16.97659	-458.85031	449.99820	-123.62395	-430.21774	347.50977	-140.64862	-441.28693	166.15074	-193.99808	-479.04950	265.89984	-130.88791	-444.56232	256.51047	-188.80161	-494.23450	71.39246	-116.63242	-465.40747	70.73317	-148.18790	-533.23303	33.99970	-150.38277	-377.98001	51.07685	-204.21754	-404.18423	33.93427	-159.36469	-321.38361	25.11544	19.36293	-613.07477	762.69666	-152.71701	-479.82098	71.06281	-92.56542	-451.76602	776.00909	-86.99372	-461.57700	496.14801	-96.06795	-471.55811	496.42566	-106.05080	-462.48160	496.45081	-97.86031	-446.68124	457.93524	-71.69370	-461.35648	457.74197	-95.20152	-493.96973	484.00238	-119.33637	-463.61792	458.49893	-89.18318	-458.05670	769.68390	-91.95967	-464.47110	776.17749	-95.34191	-458.18045	782.50269	-106.05084	-449.77054	734.83569	-96.06800	-458.84705	734.81055	-105.14223	-468.82816	735.08820	-124.31477	-459.89285	757.52106	-96.97657	-452.50049	496.17313	-122.75787	-319.59943	17.13115	-211.51082	-382.98282	-13.42549	-155.19048	-547.59766	-17.32797	-111.64990	-539.42163	-4.94365	-156.68671	-553.56653	77.30360	-165.90005	-508.57910	79.99550	-92.26255	-458.11856	776.09326	-118.27832	-505.93256	938.50403	-72.08527	-467.07172	806.51062	-166.12273	-420.73013	873.42877	-67.61352	-464.12082	744.19214	-97.10313	-462.56256	458.14569	-27.94026	-643.62335	901.76483	-109.82766	-433.82767	450.77585	-130.81670	-472.04333	146.73805	-137.23964	-487.27432	148.33995	-163.14932	-485.02121	151.96205	-161.67094	-441.74506	110.23589	-114.56732	-464.71082	80.74169	-139.89796	-496.27017	109.53871	-188.64215	-494.24081	76.86726	-55.37186	-462.68277	452.15533	-91.29700	-477.10260	457.95978	-127.22214	-491.52246	463.76422	-112.58050	-455.10922	380.86856	-97.44836	-461.68829	378.98779	-103.87131	-476.91928	380.58969	-126.18848	-473.22418	383.63135	-145.94884	-465.46426	148.61882	-173.45616	-398.28906	666.62811	-152.75688	-450.18472	259.85345	24.00000	2.00000	2006.00000	1.87907	-475.85193	891.20129	6.52537	-451.23587	783.50787	1.87907	-475.85193	891.20129	0.00000	0.00000	0.00000	0.00000	0.00000	0.00000	-16.39643	-502.97247	1507.20007	-97.10313	-462.56256	458.14569	-148.18790	-533.23303	33.99970	-152.71701	-479.82098	71.06281	-6.49841	-370.85541	882.41534	122.36338	-459.97986	457.66620	191.72710	-521.84290	40.38791	176.58177	-462.92990	69.39542	-13.33576	-503.86804	1321.99048	0.00000	0.00000	0.00000	-6.49841	-370.85541	882.41534	176.58177	-462.92990	69.39542	104.61028	-437.71817	790.57532	110.36440	-459.18320	497.19830	121.37188	-468.05713	498.17755	130.27034	-457.02609	498.11557	120.60586	-443.39236	456.79846	95.82214	-462.85599	456.44315	124.51441	-491.90469	486.06213	145.58696	-457.46323	458.73636	102.33663	-445.02521	784.10443	106.01629	-450.98816	791.26953	101.65462	-444.40015	797.43469	119.74590	-434.99405	747.69000	110.84745	-446.02512	747.75201	121.85493	-454.89905	748.73126	139.51285	-441.69559	772.45587	119.26286	-448.15216	497.13629	128.73161	-318.41940	5.48054	230.78006	-364.75015	-10.88479	207.27481	-537.16870	-8.73936	161.82732	-537.02081	-1.63274	198.76128	-537.90100	85.70631	198.96968	-491.90298	86.08174	105.31329	-444.35315	790.92242	113.25585	-489.80121	955.88190	82.27085	-456.31747	818.09589	158.02512	-398.14624	897.75787	86.74260	-453.36658	755.77740	122.36338	-459.97986	457.66620	49.23780	-638.24628	907.55743	126.60660	-428.83505	450.10480	154.15002	-461.15616	145.42241	164.55353	-474.04132	146.97307	188.91423	-464.70737	150.30389	175.10851	-423.63016	108.47752	135.78613	-458.86612	79.50239	169.18565	-482.13727	108.09499	215.20868	-466.87567	74.81929	82.15705	-471.63596	452.14032	120.78395	-475.58173	457.56418	159.41086	-479.52753	462.98804	134.39163	-448.86844	380.08853	121.61899	-459.38611	378.38486	132.02249	-472.27127	379.93552	152.52051	-462.54276	382.72397	166.92267	-450.63846	147.12608	207.57062	-426.47372	654.50470	174.73563	-440.47327	244.38165	10.25654	-580.84845	899.98730	5.25432	-418.37381	769.93787	-13.33576	-503.86804	1321.99048	-80.00000	0.00000	0.00000	-80.00000	0.00000	0.00000	-19.28307	-579.24109	1483.22583	-100.91267	-382.66034	457.08688	-228.18790	-533.23303	33.99970	-182.38261	-405.53067	72.01271	-11.55031	-291.28455	875.86127	113.94557	-380.53259	453.51016	111.72710	-521.84290	40.38791	184.63907	-383.33838	69.91582	-13.32874	-424.03671	1327.18250	200.00000	0.00000	0.00000	0.00000	0.00000	80.00000	0.00000	0.00000	80.00000	-18.07267	-526.89935	1583.51978	-95.88543	-461.44464	538.12860	-148.18790	-533.23303	113.99969	-141.35095	-476.29379	150.17268	-12.89382	-364.71268	961.92236	118.28023	-456.23758	537.47424	191.72710	-521.84290	120.38791	165.51817	-462.32791	148.62442	-16.15353	-509.05661	1401.77222	0.00000	200.00000	0.00000	0.00000	80.00000	0.00000	0.00000	80.00000	0.00000	-96.32676	-499.71631	1506.46545	-17.20316	-458.76996	456.87625	-148.18790	-453.23303	33.99970	-79.29519	-450.35049	59.20002	73.08537	-365.31070	888.38855	201.81442	-451.37012	461.32736	191.72710	-441.84290	40.38791	255.40231	-470.98151	80.46315	66.61460	-504.05792	1324.80176	0.00000	0.00000	200.00000	-0.10099	0.10015	0.07719	0.06180	-0.06848	-0.00765	-248.18790	-533.23303	33.99970	-148.18790	-433.23303	33.99970	91.72710	-521.84290	40.38791	191.72710	-421.84290	40.38791 
20	0.095	-97.12728	-462.56552	458.15054	220.75504	-462.69302	449.07565	-97.27146	-144.69611	448.63412	-88.05264	-453.04886	775.89038	-156.31627	-481.25955	71.64351	192.97426	-481.87289	25.72956	-164.79533	-123.97363	2.36626	-109.63136	-411.46823	425.86676	-6.51563	-370.83878	882.42883	231.82707	-370.87616	881.97455	-6.48524	-172.21992	882.02417	-6.13702	-370.43417	1081.04724	122.34043	-459.97534	457.67221	456.38632	-459.99173	457.35913	122.35649	-125.92947	457.32382	122.65353	-459.62695	791.71790	172.71127	-462.55597	68.87169	533.47076	-462.50851	121.62442	165.76033	-101.09625	116.08201	120.41846	-510.27524	426.52881	-50.90947	-419.03003	1531.52808	26.78378	-419.27020	1535.60376	-82.09991	-582.82379	1481.95996	40.69123	-590.72394	1479.71973	-14.34045	-574.53900	1345.72144	-7.08627	-564.65222	1081.36438	-12.33573	-433.19263	1298.25513	-12.93496	-360.05676	1196.24609	132.50755	-561.04144	1257.95105	-160.88110	-381.57825	870.84906	147.84985	-360.09921	894.00848	-37.07915	-579.10339	898.56598	57.57586	-582.71472	901.39484	121.68984	-483.97653	1326.02881	257.44794	-431.10486	1310.71765	381.96259	-372.50290	1277.37305	356.69910	-288.88605	1231.26855	484.26978	-306.95737	1265.73303	568.26251	-243.68268	1348.96021	577.26715	-228.83263	1277.95117	624.34186	-235.40350	1315.04700	-165.07381	-481.74817	1312.85876	-292.81860	-397.40619	1275.53760	-365.79526	-309.30072	1243.07849	-335.36084	-254.22890	1214.16711	-463.44116	-238.91626	1252.35376	-549.41254	-138.33330	1323.86633	-557.92694	-150.43948	1251.91809	-605.39105	-129.24857	1290.21448	230.89803	-440.18762	744.56665	203.03673	-459.08698	561.88928	189.03441	-380.13159	657.47601	215.97232	-450.24905	656.16736	199.93199	-451.35709	465.47629	44.74887	-468.59354	449.86810	138.92410	-427.39841	332.67325	166.07343	-430.27884	149.08638	219.16222	-463.79672	251.33415	154.79762	-435.01083	240.76274	216.33626	-466.96976	70.19092	136.81158	-458.92923	68.63759	191.74762	-521.81561	40.45477	164.58865	-365.16016	46.02080	220.17278	-387.84659	37.12735	176.05957	-306.96576	27.54210	-200.54919	-413.27032	759.14539	-174.65573	-425.78323	570.87036	-145.18369	-355.80893	669.87054	-187.81418	-415.96262	665.31250	-177.23735	-466.27487	466.28799	-17.01720	-458.85614	450.01303	-123.61296	-430.21213	347.50394	-140.59744	-441.30600	166.11595	-194.00974	-479.04459	265.93472	-130.87575	-444.56161	256.50934	-188.79938	-494.22565	71.40846	-116.64786	-465.40982	70.71803	-148.20480	-533.19019	34.01086	-150.37950	-377.99661	51.08119	-204.24458	-404.17966	33.93438	-159.35760	-321.38513	25.11208	19.31960	-613.05713	762.67126	-152.72362	-479.81775	71.06325	-92.59988	-451.73199	776.00922	-87.01922	-461.57565	496.15262	-96.09351	-471.55646	496.43115	-106.07610	-462.47989	496.45486	-97.88419	-446.68436	457.93817	-71.71811	-461.35986	457.74750	-95.22703	-493.96933	484.01065	-119.36030	-463.62045	458.50314	-89.21757	-458.02338	769.68488	-91.99435	-464.43692	776.17908	-95.37666	-458.14554	782.50336	-106.08377	-449.74112	734.83557	-96.10118	-458.81772	734.81183	-105.17547	-468.79852	735.09033	-124.34838	-459.86038	757.52124	-97.00181	-452.49908	496.17636	-122.77227	-319.60464	17.13014	-211.52313	-382.99243	-13.42352	-155.19716	-547.60547	-17.31906	-111.65682	-539.42743	-4.93521	-156.69292	-553.57031	77.31277	-165.90779	-508.58310	80.00276	-92.29711	-458.08447	776.09412	-118.31051	-505.92007	938.50818	-72.11810	-467.04419	806.51086	-166.15294	-420.70059	873.44305	-67.64890	-464.08542	744.18939	-97.12727	-462.56549	458.15051	-27.98192	-643.62115	901.74481	-109.84993	-433.82974	450.78027	-130.82645	-472.04190	146.73991	-137.25034	-487.27258	148.34138	-163.16016	-485.01807	151.96227	-161.67738	-441.74149	110.23636	-114.57341	-464.70966	80.74413	-139.90729	-496.26804	109.53979	-188.64998	-494.23572	76.86586	-55.39556	-462.68793	452.16214	-91.32191	-477.10593	457.96475	-127.24827	-491.52390	463.76736	-112.60056	-455.11066	380.87238	-97.46864	-461.69055	378.99228	-103.89252	-476.92126	380.59375	-126.20972	-473.22495	383.63437	-145.95837	-465.46198	148.62001	-173.46288	-398.28751	666.62878	-152.74005	-450.18756	259.85153	24.00000	2.00000	2006.00000	1.86636	-475.87390	891.20459	6.49679	-451.21118	783.50513	1.86636	-475.87390	891.20459	0.00000	0.00000	0.00000	0.00000	0.00000	0.00000	-16.38359	-502.96198	1507.20288	-97.12727	-462.56549	458.15051	-148.20480	-533.19019	34.01086	-152.72362	-479.81775	71.06325	-6.51563	-370.83875	882.42877	122.34043	-459.97531	457.67218	191.74762	-521.81561	40.45477	176.57391	-462.94949	69.41425	-13.33809	-503.86581	1321.98828	0.00000	0.00000	0.00000	-6.51563	-370.83875	882.42877	176.57391	-462.94949	69.41425	104.58868	-437.70303	790.56891	110.34169	-459.17590	497.20279	121.34749	-468.05109	498.18234	130.24722	-457.02173	498.12015	120.58539	-443.38818	456.80405	95.79971	-462.84753	456.44907	124.48654	-491.89859	486.06799	145.56355	-457.46213	458.74243	102.31410	-445.00964	784.09839	105.99272	-450.97275	791.26343	101.63212	-444.38416	797.42816	119.72449	-434.98236	747.68512	110.82475	-446.01172	747.74731	121.83055	-454.88690	748.72687	139.48958	-441.68585	772.45044	119.24143	-448.14655	497.14059	128.70825	-318.44559	5.46850	230.76106	-364.76596	-10.89907	207.28661	-537.18762	-8.66924	161.84073	-537.04443	-1.55224	198.79492	-537.87811	85.77870	198.99533	-491.87991	86.13302	105.29070	-444.33789	790.91614	113.23771	-489.81079	955.87775	82.24738	-456.30466	818.09058	158.01457	-398.14758	897.76044	86.71658	-453.34592	755.76910	122.34043	-459.97531	457.67218	49.20082	-638.25140	907.53467	126.57610	-428.83102	450.10815	154.13924	-461.17398	145.43814	164.54559	-474.05606	146.99042	188.90320	-464.71597	150.32124	175.08932	-423.64737	108.49144	135.77794	-458.89499	79.51889	169.18120	-482.15442	108.11435	215.20056	-466.88504	74.83993	82.13829	-471.64166	452.14597	120.76493	-475.57718	457.57162	159.39157	-479.51273	462.99731	134.36876	-448.86874	380.09604	121.59914	-459.38950	378.39291	132.00551	-472.27155	379.94519	152.50044	-462.53793	382.73346	166.90884	-450.65326	147.14127	207.65639	-426.46872	654.64398	174.71991	-440.49133	244.36459	10.24835	-580.90906	899.98041	5.22797	-418.34595	769.93884	-13.33809	-503.86581	1321.98828	-80.00000	0.00000	0.00000	-80.00000	0.00000	0.00000	-19.26101	-579.23291	1483.23486	-100.93553	-382.66333	457.08224	-228.20480	-533.19019	34.01086	-182.38519	-405.52582	72.01232	-11.56076	-291.26657	875.88531	113.93419	-380.52695	453.51401	111.74762	-521.81561	40.45477	184.61139	-383.35593	69.92725	-13.33019	-424.03418	1327.17590	200.00000	0.00000	0.00000	0.00000	0.00000	80.00000	0.00000	0.00000	80.00000	-18.05359	-526.88287	1583.52454	-95.91219	-461.43823	538.13336	-148.20480	-533.19019	114.01086	-141.36119	-476.29184	150.17369	-12.90660	-364.70575	961.93689	118.25723	-456.23035	537.48010	191.74762	-521.81561	120.45477	165.50696	-462.34259	148.64275	-16.15399	-509.04999	1401.77051	0.00000	200.00000	0.00000	0.00000	80.00000	0.00000	0.00000	80.00000	0.00000	-96.31438	-499.71655	1506.47107	-17.22721	-458.77429	456.88324	-148.20480	-453.19019	34.01086	-79.29960	-450.35117	59.20424	73.06893	-365.30188	888.39880	201.79269	-451.37701	461.33374	191.74762	-441.81561	40.45477	255.39601	-470.98041	80.48597	66.61234	-504.05630	1324.79773	0.00000	0.00000	200.00000	-0.10099	0.10015	0.07719	0.06180	-0.06848	-0.00765	-248.20480	-533.19019	34.01086	-148.20480	-433.19019	34.01086	91.74762	-521.81561	40.45477	191.74762	-421.81561	40.45477 
